# xmcd
#
# Track frame offsets:
#	150
#	15515
#	30976
#	45825
#	67602
#	81905
#	94840
#	109344
#	121687
#	140988
#	162075
#	174585
#	197645
#	210725
#	228086
#
# Disc length: 3262 seconds
#
# Revision: 1
# Processed by: cddbd v1.5.2PL0 Copyright (c) Steve Scherf et al.
# Submitted via: audiograbber 1.83.01
#
DISCID=b50cbc0f
DTITLE=Eric Church - Carolina
DYEAR=2009
DGENRE=Country
TTITLE0=Ain't Killed Me Yet
TTITLE1=Lotta Boot Left To Fill
TTITLE2=Young And Wild
TTITLE3=Where She Told Me To Go
TTITLE4=Longer Gone
TTITLE5=Love Your Love The Most
TTITLE6=Smoke A Little Smoke
TTITLE7=Without You Here
TTITLE8=You Make It Look So Easy
TTITLE9=Carolina
TTITLE10=Hell On The Heart
TTITLE11=Those I've Loved
TTITLE12=My Heart's Got A Memory (Bonus Track)
TTITLE13=Faster Than My Angels Can Fly (Bonus Track)
TTITLE14=His Kind Of Money (My Kind Of Love) (Bonus Track)
EXTD=
EXTT0=
EXTT1=
EXTT2=
EXTT3=
EXTT4=
EXTT5=
EXTT6=
EXTT7=
EXTT8=
EXTT9=
EXTT10=
EXTT11=
EXTT12=
EXTT13=
EXTT14=
PLAYORDER=
